<svg xmlns="http://www.w3.org/2000/svg" width="900" height="320" viewBox="0 0 900 320" role="img"
     aria-label="GitHub contributions over the last 12 weeks, styled as a GPU utilization graph">
  <style>
    text { font-family: SFMono-Regular, Consolas, 'Liberation Mono', Menlo, monospace; }
    .tick  { font-size: 10px; fill: #565f89; }
    .title { font-size: 12px; fill: #565f89; }
    .legend { font-size: 11px; fill: #a9b1d6; }
    .stat  { font-size: 12.5px; }
    .peaklabel { font-size: 10px; fill: #c0caf5; stroke: #1a1b26; stroke-width: 3px; paint-order: stroke; }
    .meta  { font-size: 10px; fill: #3b4261; }
    .line  { stroke-dasharray: 1772; stroke-dashoffset: 1772; animation: draw 1.8s ease-out 0.2s forwards; }
    .fade  { opacity: 0; animation: fade 0.9s ease-out forwards; }
    .fade-area { animation-delay: 1.0s; }
    .fade-dot  { animation-delay: 1.7s; }
    .fade-stats { animation-delay: 1.4s; }
    @keyframes draw { to { stroke-dashoffset: 0; } }
    @keyframes fade { to { opacity: 1; } }
    @media (prefers-reduced-motion: reduce) {
      .line { animation: none; stroke-dashoffset: 0; }
      .fade { animation: none; opacity: 1; }
    }
  </style>
  <defs>
    <linearGradient id="areafill" x1="0" y1="0" x2="0" y2="1">
      <stop offset="0" stop-color="#7aa2f7" stop-opacity="0.32"/>
      <stop offset="1" stop-color="#7aa2f7" stop-opacity="0.02"/>
    </linearGradient>
    <clipPath id="plot"><rect x="50" y="60" width="828" height="170"/></clipPath>
  </defs>

  <rect x="0.5" y="0.5" width="899" height="319" rx="10" fill="#1a1b26" stroke="#292e42"/>
  <circle cx="22" cy="17.0" r="5.5" fill="#f7768e"/>
  <circle cx="42" cy="17.0" r="5.5" fill="#e0af68"/>
  <circle cx="62" cy="17.0" r="5.5" fill="#9ece6a"/>
  <text x="450.0" y="21.0" text-anchor="middle" class="title">dejayvu@oxford: ~ (jaytop)</text>
  <text x="884" y="21.0" text-anchor="end" class="meta">updated 2026-07-15</text>
  <line x1="0.5" y1="34" x2="899.5" y2="34" stroke="#292e42"/>

  <text x="50" y="54" class="legend">GPU 0: Junhao Zhang — Compute Utilization (contributions/day)</text>
  <text x="878" y="54" text-anchor="end" class="tick">last 12 weeks</text>

  <line x1="50" y1="230.0" x2="878" y2="230.0" stroke="#292e42" stroke-width="1"/><line x1="50" y1="189.0" x2="878" y2="189.0" stroke="#292e42" stroke-width="1" stroke-dasharray="3 4" opacity="0.55"/><line x1="50" y1="148.0" x2="878" y2="148.0" stroke="#292e42" stroke-width="1" stroke-dasharray="3 4" opacity="0.55"/><line x1="50" y1="107.0" x2="878" y2="107.0" stroke="#292e42" stroke-width="1" stroke-dasharray="3 4" opacity="0.55"/><line x1="50" y1="66.0" x2="878" y2="66.0" stroke="#292e42" stroke-width="1" stroke-dasharray="3 4" opacity="0.55"/>
  <text x="42" y="233.5" text-anchor="end" class="tick">0%</text><text x="42" y="192.5" text-anchor="end" class="tick">25%</text><text x="42" y="151.5" text-anchor="end" class="tick">50%</text><text x="42" y="110.5" text-anchor="end" class="tick">75%</text><text x="42" y="69.5" text-anchor="end" class="tick">100%</text>
  <text x="129.8" y="248" text-anchor="middle" class="tick">May</text><text x="439.1" y="248" text-anchor="middle" class="tick">Jun</text><text x="738.3" y="248" text-anchor="middle" class="tick">Jul</text>

  <g clip-path="url(#plot)">
    <path d="M 50.0 230.0 Q 50.0 230.0 55.0 215.5 Q 60.0 201.0 65.0 215.5 Q 70.0 230.0 74.9 230.0 Q 79.9 230.0 84.9 230.0 Q 89.9 230.0 94.9 230.0 Q 99.9 230.0 104.9 230.0 Q 109.9 230.0 114.8 230.0 Q 119.8 230.0 124.8 230.0 Q 129.8 230.0 134.8 230.0 Q 139.8 230.0 144.8 230.0 Q 149.8 230.0 154.7 230.0 Q 159.7 230.0 164.7 230.0 Q 169.7 230.0 174.7 230.0 Q 179.7 230.0 184.7 230.0 Q 189.7 230.0 194.7 230.0 Q 199.6 230.0 204.6 230.0 Q 209.6 230.0 214.6 230.0 Q 219.6 230.0 224.6 230.0 Q 229.6 230.0 234.6 230.0 Q 239.5 230.0 244.5 230.0 Q 249.5 230.0 254.5 230.0 Q 259.5 230.0 264.5 230.0 Q 269.5 230.0 274.5 230.0 Q 279.4 230.0 284.4 230.0 Q 289.4 230.0 294.4 230.0 Q 299.4 230.0 304.4 230.0 Q 309.4 230.0 314.4 230.0 Q 319.3 230.0 324.3 230.0 Q 329.3 230.0 334.3 230.0 Q 339.3 230.0 344.3 230.0 Q 349.3 230.0 354.3 230.0 Q 359.3 230.0 364.2 230.0 Q 369.2 230.0 374.2 230.0 Q 379.2 230.0 384.2 230.0 Q 389.2 230.0 394.2 230.0 Q 399.2 230.0 404.1 230.0 Q 409.1 230.0 414.1 230.0 Q 419.1 230.0 424.1 230.0 Q 429.1 230.0 434.1 230.0 Q 439.1 230.0 444.0 230.0 Q 449.0 230.0 454.0 230.0 Q 459.0 230.0 464.0 230.0 Q 469.0 230.0 474.0 230.0 Q 479.0 230.0 484.0 230.0 Q 488.9 230.0 493.9 230.0 Q 498.9 230.0 503.9 230.0 Q 508.9 230.0 513.9 230.0 Q 518.9 230.0 523.9 230.0 Q 528.8 230.0 533.8 230.0 Q 538.8 230.0 543.8 227.1 Q 548.8 224.2 553.8 180.7 Q 558.8 137.1 563.8 163.2 Q 568.7 189.4 573.7 206.8 Q 578.7 224.2 583.7 224.2 Q 588.7 224.2 593.7 227.1 Q 598.7 230.0 603.7 230.0 Q 608.7 230.0 613.6 230.0 Q 618.6 230.0 623.6 230.0 Q 628.6 230.0 633.6 230.0 Q 638.6 230.0 643.6 125.5 Q 648.6 21.0 653.5 96.5 Q 658.5 171.9 663.5 201.0 Q 668.5 230.0 673.5 230.0 Q 678.5 230.0 683.5 230.0 Q 688.5 230.0 693.4 230.0 Q 698.4 230.0 703.4 230.0 Q 708.4 230.0 713.4 230.0 Q 718.4 230.0 723.4 230.0 Q 728.4 230.0 733.3 227.1 Q 738.3 224.2 743.3 227.1 Q 748.3 230.0 753.3 218.4 Q 758.3 206.8 763.3 218.4 Q 768.3 230.0 773.3 209.7 Q 778.2 189.4 783.2 209.7 Q 788.2 230.0 793.2 230.0 Q 798.2 230.0 803.2 230.0 Q 808.2 230.0 813.2 230.0 Q 818.1 230.0 823.1 230.0 Q 828.1 230.0 833.1 227.1 Q 838.1 224.2 843.1 183.6 Q 848.1 142.9 853.1 142.9 Q 858.0 142.9 863.0 137.1 Q 868.0 131.3 873.0 177.8 L 878.0 224.2 L 878.0 230 L 50.0 230 Z" fill="url(#areafill)" class="fade fade-area"/>
    <path d="M 50.0 230.0 Q 50.0 230.0 55.0 215.5 Q 60.0 201.0 65.0 215.5 Q 70.0 230.0 74.9 230.0 Q 79.9 230.0 84.9 230.0 Q 89.9 230.0 94.9 230.0 Q 99.9 230.0 104.9 230.0 Q 109.9 230.0 114.8 230.0 Q 119.8 230.0 124.8 230.0 Q 129.8 230.0 134.8 230.0 Q 139.8 230.0 144.8 230.0 Q 149.8 230.0 154.7 230.0 Q 159.7 230.0 164.7 230.0 Q 169.7 230.0 174.7 230.0 Q 179.7 230.0 184.7 230.0 Q 189.7 230.0 194.7 230.0 Q 199.6 230.0 204.6 230.0 Q 209.6 230.0 214.6 230.0 Q 219.6 230.0 224.6 230.0 Q 229.6 230.0 234.6 230.0 Q 239.5 230.0 244.5 230.0 Q 249.5 230.0 254.5 230.0 Q 259.5 230.0 264.5 230.0 Q 269.5 230.0 274.5 230.0 Q 279.4 230.0 284.4 230.0 Q 289.4 230.0 294.4 230.0 Q 299.4 230.0 304.4 230.0 Q 309.4 230.0 314.4 230.0 Q 319.3 230.0 324.3 230.0 Q 329.3 230.0 334.3 230.0 Q 339.3 230.0 344.3 230.0 Q 349.3 230.0 354.3 230.0 Q 359.3 230.0 364.2 230.0 Q 369.2 230.0 374.2 230.0 Q 379.2 230.0 384.2 230.0 Q 389.2 230.0 394.2 230.0 Q 399.2 230.0 404.1 230.0 Q 409.1 230.0 414.1 230.0 Q 419.1 230.0 424.1 230.0 Q 429.1 230.0 434.1 230.0 Q 439.1 230.0 444.0 230.0 Q 449.0 230.0 454.0 230.0 Q 459.0 230.0 464.0 230.0 Q 469.0 230.0 474.0 230.0 Q 479.0 230.0 484.0 230.0 Q 488.9 230.0 493.9 230.0 Q 498.9 230.0 503.9 230.0 Q 508.9 230.0 513.9 230.0 Q 518.9 230.0 523.9 230.0 Q 528.8 230.0 533.8 230.0 Q 538.8 230.0 543.8 227.1 Q 548.8 224.2 553.8 180.7 Q 558.8 137.1 563.8 163.2 Q 568.7 189.4 573.7 206.8 Q 578.7 224.2 583.7 224.2 Q 588.7 224.2 593.7 227.1 Q 598.7 230.0 603.7 230.0 Q 608.7 230.0 613.6 230.0 Q 618.6 230.0 623.6 230.0 Q 628.6 230.0 633.6 230.0 Q 638.6 230.0 643.6 125.5 Q 648.6 21.0 653.5 96.5 Q 658.5 171.9 663.5 201.0 Q 668.5 230.0 673.5 230.0 Q 678.5 230.0 683.5 230.0 Q 688.5 230.0 693.4 230.0 Q 698.4 230.0 703.4 230.0 Q 708.4 230.0 713.4 230.0 Q 718.4 230.0 723.4 230.0 Q 728.4 230.0 733.3 227.1 Q 738.3 224.2 743.3 227.1 Q 748.3 230.0 753.3 218.4 Q 758.3 206.8 763.3 218.4 Q 768.3 230.0 773.3 209.7 Q 778.2 189.4 783.2 209.7 Q 788.2 230.0 793.2 230.0 Q 798.2 230.0 803.2 230.0 Q 808.2 230.0 813.2 230.0 Q 818.1 230.0 823.1 230.0 Q 828.1 230.0 833.1 227.1 Q 838.1 224.2 843.1 183.6 Q 848.1 142.9 853.1 142.9 Q 858.0 142.9 863.0 137.1 Q 868.0 131.3 873.0 177.8 L 878.0 224.2" fill="none" stroke="#7aa2f7" stroke-width="2" stroke-linejoin="round" class="line"/>
  </g>
  <g class="fade fade-dot">
    <circle cx="648.6" cy="66.0" r="3.5" fill="#f7768e" stroke="#1a1b26" stroke-width="2"/>
    <text x="638.6" y="69.5" text-anchor="end" class="peaklabel">peak 36/day</text>
  </g>

  <line x1="0.5" y1="262" x2="899.5" y2="262" stroke="#292e42"/>
  <g class="fade fade-stats">
    <text x="50" y="286" class="stat"><tspan fill="#9ece6a">▸ </tspan><tspan fill="#c0caf5">145</tspan><tspan fill="#565f89"> contributions (12 mo)</tspan></text>
    <text x="380" y="286" class="stat"><tspan fill="#9ece6a">▸ </tspan><tspan fill="#c0caf5">36</tspan><tspan fill="#565f89"> peak/day</tspan></text>
    <text x="560" y="286" class="stat"><tspan fill="#9ece6a">▸ </tspan><tspan fill="#c0caf5">5d</tspan><tspan fill="#565f89"> current streak</tspan></text>
    <text x="730" y="286" class="stat"><tspan fill="#9ece6a">▸ </tspan><tspan fill="#c0caf5">5d</tspan><tspan fill="#565f89"> longest</tspan></text>
  </g>
</svg>
